# xmcd CD database file
#
# Track frame offsets:
#	150
#	13214
#	30114
#	43329
#	61708
#	77417
#	89868
#	106429
#	122977
#	134374
#	148063
#	164097
#	179696
#	197237
#
# Disc length: 2787 seconds
#
# Revision: 0
# Processed by: cddbd v1.5.2PL0 Copyright (c) Steve Scherf et al.
# Submitted via: CDex 1.51
#
DISCID=ce0ae10e
DTITLE=Pat Donohue - Nobody's Fault
DYEAR=2011
DGENRE=Blues
TTITLE0=Ain't Nobody's Fault But Mine
TTITLE1=Sometimes
TTITLE2=Exercise Blues
TTITLE3=Too Gone
TTITLE4=Irish Blues
TTITLE5=You Haunt Me
TTITLE6=Cold Winter Blues
TTITLE7=Hound Dog
TTITLE8=Lonesome Midtown Blues
TTITLE9=No Joke
TTITLE10=With You Again
TTITLE11=Come Back Baby
TTITLE12=Louise
TTITLE13=Would You Like To Play The Guitar?
EXTD=YEAR: 2011
EXTT0=
EXTT1=
EXTT2=
EXTT3=
EXTT4=
EXTT5=
EXTT6=
EXTT7=
EXTT8=
EXTT9=
EXTT10=
EXTT11=
EXTT12=
EXTT13=
PLAYORDER=
